<svg version="1.1" id="Layer_1" xmlns="http://www.w3.org/2000/svg" xmlns:xlink="http://www.w3.org/1999/xlink" x="0px" y="0px"
	 width="100%" viewBox="0 0 500 500" enable-background="new 0 0 500 500" xml:space="preserve">
<path fill="#000000" opacity="1.000000" stroke="none" 
	d="
M74.000000,501.000000 
	C49.679207,501.000000 25.358414,501.000000 1.018810,501.000000 
	C1.018810,334.431763 1.018810,167.863525 1.018810,1.000000 
	C92.687347,1.000000 184.375015,1.000000 276.848511,1.268620 
	C270.364471,6.064548 265.288727,12.218662 265.078552,21.059177 
	C264.801880,32.696239 265.109802,44.347195 265.091309,56.456047 
	C265.066376,69.944649 265.116516,82.969376 265.093018,96.458069 
	C265.068695,104.947128 265.118042,112.972237 265.095215,121.384872 
	C264.990936,122.822739 264.958801,123.873070 264.465576,124.957085 
	C237.369705,124.993263 210.734863,125.011230 184.100067,124.991325 
	C171.882614,124.982201 162.866089,135.314835 163.092422,145.460312 
	C163.066971,152.947433 163.117783,159.971313 163.091156,167.458435 
	C163.064804,175.613205 163.115906,183.304733 163.090637,191.459595 
	C163.064804,199.613846 163.115326,207.304749 163.090118,215.459045 
	C163.065170,222.614075 163.115967,229.305695 163.091537,236.457825 
	C162.979919,241.585571 162.943527,246.252792 162.444168,250.955444 
	C135.249725,250.993393 108.518257,250.995789 81.786797,250.998489 
	C71.881546,250.999496 64.752548,257.018616 62.512421,267.186523 
	C62.149796,274.609222 62.158016,281.803436 62.090031,289.460938 
	C62.064690,297.948395 62.115555,305.972534 62.090439,314.460083 
	C62.065132,322.614685 62.115799,330.305908 62.090744,338.460510 
	C62.065533,346.948303 62.116039,354.972687 62.090961,363.460510 
	C62.065491,371.615234 62.115608,379.306519 62.090454,387.461243 
	C62.065659,396.282104 62.116142,404.639587 62.091568,413.460571 
	C62.066341,421.282043 62.116173,428.640015 62.091255,436.461426 
	C62.066513,444.615784 62.116524,452.306671 62.091908,460.460999 
	C62.067108,467.949249 62.116936,474.974030 62.093075,482.390320 
	C63.287128,489.888000 66.365936,495.735748 73.151932,499.109985 
	C73.629753,499.347565 73.726212,500.352112 74.000000,501.000000 
z"/>
<path fill="#000000" opacity="1.000000" stroke="none" 
	d="
M428.000000,1.000003 
	C452.316833,1.000000 476.633698,1.000000 500.947388,1.000003 
	C500.944275,167.666672 500.944275,334.333344 500.944275,501.000000 
	C476.904816,501.000000 452.921082,501.000000 428.280457,500.665497 
	C433.176849,496.604828 438.212006,492.312988 439.200256,485.269287 
	C439.859009,480.573914 439.651886,475.757050 439.894531,470.529846 
	C439.915649,460.041534 439.874512,450.017944 439.896301,439.529846 
	C439.917175,429.708435 439.875122,420.351532 439.896179,410.530060 
	C439.915680,399.040558 439.872070,388.015625 439.891144,376.526398 
	C439.912933,358.038513 439.872040,340.014984 439.894623,321.527100 
	C439.915741,305.372314 439.873383,289.681885 439.895569,273.527283 
	C439.916138,258.372711 439.872131,243.682236 439.893860,228.527771 
	C439.915680,212.038925 439.871796,196.014114 439.894073,179.525482 
	C439.917999,162.373215 439.875763,145.684784 439.902100,128.532333 
	C439.924988,118.043320 439.879333,108.018311 439.901978,97.529495 
	C439.924652,83.041161 439.879028,69.016624 439.901245,54.528309 
	C439.980164,43.931900 439.876099,33.797447 440.037048,23.667208 
	C440.177765,14.813653 436.848358,7.931715 429.375458,3.072830 
	C428.737427,2.657995 428.450195,1.703692 428.000000,1.000003 
z"/>
<path fill="#E8B513" opacity="1.000000" stroke="none" 
	d="
M427.531342,1.000003 
	C428.450195,1.703692 428.737427,2.657995 429.375458,3.072830 
	C436.848358,7.931715 440.177765,14.813653 440.037048,23.667208 
	C439.876099,33.797447 439.980164,43.931900 439.443298,54.530380 
	C389.457642,54.997498 339.997681,54.952499 290.537994,55.044537 
	C282.080231,55.060276 273.623566,55.661453 265.166382,55.992180 
	C265.109802,44.347195 264.801880,32.696239 265.078552,21.059177 
	C265.288727,12.218662 270.364471,6.064548 277.317139,1.268620 
	C327.020905,1.000000 377.041779,1.000000 427.531342,1.000003 
z"/>
<path fill="#B35701" opacity="1.000000" stroke="none" 
	d="
M439.832306,470.994568 
	C439.651886,475.757050 439.859009,480.573914 439.200256,485.269287 
	C438.212006,492.312988 433.176849,496.604828 427.811798,500.665497 
	C397.979095,501.000000 367.958221,501.000000 337.467529,500.531372 
	C336.961487,492.372406 336.925201,484.682037 336.925934,476.524902 
	C336.942657,468.369507 336.922333,460.680908 336.936218,452.530792 
	C337.036469,448.051392 337.102570,444.033508 337.570679,440.012024 
	C340.268951,440.942596 343.626343,441.231781 344.660645,442.933136 
	C347.643707,447.840332 350.062042,453.183319 352.010376,458.603760 
	C354.460022,465.418823 360.962433,471.968140 367.120728,471.924316 
	C391.358887,471.751984 415.595276,471.326233 439.832306,470.994568 
z"/>
<path fill="#F3CE35" opacity="1.000000" stroke="none" 
	d="
M74.468658,501.000000 
	C73.726212,500.352112 73.629753,499.347565 73.151932,499.109985 
	C66.365936,495.735748 63.287128,489.888000 62.492641,482.471252 
	C65.424294,482.440430 67.882477,482.962341 70.341103,482.964417 
	C125.561073,483.010773 180.781082,483.000000 236.024902,483.467468 
	C236.032455,489.623291 236.016235,495.311646 236.000000,501.000000 
	C182.312439,501.000000 128.624878,501.000000 74.468658,501.000000 
z"/>
<path fill="#DF9A04" opacity="1.000000" stroke="none" 
	d="
M236.468658,501.000000 
	C236.016235,495.311646 236.032455,489.623291 236.045868,483.041016 
	C236.112595,480.443359 236.182175,478.739624 236.694153,477.025543 
	C270.387360,477.007385 303.638153,476.999542 336.888916,476.991699 
	C336.925201,484.682037 336.961487,492.372406 336.998901,500.531372 
	C303.645782,501.000000 270.291534,501.000000 236.468658,501.000000 
z"/>
<path fill="#E2AB11" opacity="1.000000" stroke="none" 
	d="
M265.091309,56.456047 
	C273.623566,55.661453 282.080231,55.060276 290.537994,55.044537 
	C339.997681,54.952499 389.457642,54.997498 439.375458,54.994171 
	C439.879028,69.016624 439.924652,83.041161 439.502258,97.450623 
	C436.576263,97.557045 434.118469,97.037743 431.660248,97.035484 
	C380.447998,96.988441 329.235718,97.023941 278.023529,96.956406 
	C273.737488,96.950760 269.452271,96.329407 265.166656,95.994110 
	C265.116516,82.969376 265.066376,69.944649 265.091309,56.456047 
z"/>
<path fill="#F0CC59" opacity="1.000000" stroke="none" 
	d="
M162.907150,250.920013 
	C162.943527,246.252792 162.979919,241.585571 163.549561,236.458557 
	C221.686386,235.996658 279.289978,235.994568 336.949066,236.459137 
	C336.954102,249.276535 336.903687,261.627258 336.396942,273.982910 
	C302.647003,273.999359 269.353363,274.010925 236.038849,273.606567 
	C235.685242,271.125366 235.352509,269.060089 234.995056,266.622253 
	C232.224609,256.627716 224.750885,251.064133 214.244614,251.014587 
	C197.132355,250.933884 180.019669,250.946671 162.907150,250.920013 
z"/>
<path fill="#DB9E0E" opacity="1.000000" stroke="none" 
	d="
M439.833557,128.996338 
	C439.875763,145.684784 439.917999,162.373215 439.436584,179.527496 
	C416.939514,179.994614 394.965363,180.077347 372.993744,179.879364 
	C370.626648,179.858032 367.205353,178.894699 366.106781,177.188004 
	C362.122498,170.998215 358.336029,164.543747 355.560822,157.745819 
	C351.574066,147.980164 346.242218,140.177429 334.999420,137.706573 
	C330.167542,129.786209 323.585205,125.679642 314.433105,125.758278 
	C299.849915,125.883575 285.264679,125.822716 270.680756,125.752075 
	C268.761444,125.742775 266.844635,125.212425 264.926666,124.923393 
	C264.958801,123.873070 264.990936,122.822739 265.494568,121.466202 
	C268.261902,121.439987 270.556763,121.953285 272.853668,121.962723 
	C289.679626,122.031860 306.508179,121.846313 323.331085,122.082840 
	C329.270782,122.166359 335.461212,122.316399 341.074921,123.988159 
	C353.047943,127.553680 365.110535,128.338318 377.473022,128.083832 
	C393.959106,127.744492 410.457855,127.932991 426.950165,128.045578 
	C431.246613,128.074905 435.539185,128.664230 439.833557,128.996338 
z"/>
<path fill="#DEA40F" opacity="1.000000" stroke="none" 
	d="
M439.902100,128.532333 
	C435.539185,128.664230 431.246613,128.074905 426.950165,128.045578 
	C410.457855,127.932991 393.959106,127.744492 377.473022,128.083832 
	C365.110535,128.338318 353.047943,127.553680 341.074921,123.988159 
	C335.461212,122.316399 329.270782,122.166359 323.331085,122.082840 
	C306.508179,121.846313 289.679626,122.031860 272.853668,121.962723 
	C270.556763,121.953285 268.261902,121.439987 265.566711,121.078659 
	C265.118042,112.972237 265.068695,104.947128 265.093018,96.458069 
	C269.452271,96.329407 273.737488,96.950760 278.023529,96.956406 
	C329.235718,97.023941 380.447998,96.988441 431.660248,97.035484 
	C434.118469,97.037743 436.576263,97.557045 439.433960,97.914429 
	C439.879333,108.018311 439.924988,118.043320 439.902100,128.532333 
z"/>
<path fill="#F5D756" opacity="1.000000" stroke="none" 
	d="
M62.166626,412.997070 
	C62.116142,404.639587 62.065659,396.282104 62.548553,387.461823 
	C120.691544,386.994965 178.301147,386.990936 235.943573,387.455078 
	C236.015213,393.288055 236.054016,398.652924 236.064911,404.459320 
	C235.994019,407.263062 235.951065,409.625275 235.445221,411.990784 
	C180.167877,411.996094 125.353432,411.983429 70.539055,412.042419 
	C67.747910,412.045441 64.957420,412.664703 62.166626,412.997070 
z"/>
<path fill="#F8E179" opacity="1.000000" stroke="none" 
	d="
M62.166416,313.996674 
	C62.115555,305.972534 62.064690,297.948395 62.548134,289.461578 
	C120.693771,288.994354 178.305099,288.989807 235.944885,289.436890 
	C236.010391,292.598480 236.047440,295.308441 236.060593,298.483093 
	C236.021393,303.964508 236.006088,308.981232 235.522705,313.998535 
	C177.425217,313.998291 119.795822,313.997467 62.166416,313.996674 
z"/>
<path fill="#F7DE70" opacity="1.000000" stroke="none" 
	d="
M62.090439,314.460083 
	C119.795822,313.997467 177.425217,313.998291 235.540466,314.450195 
	C236.085220,317.612457 236.144135,320.323608 236.156372,323.496643 
	C236.042984,328.967377 235.976273,333.976257 235.446594,338.988983 
	C177.377914,338.660919 119.772186,338.329010 62.166466,337.997070 
	C62.115799,330.305908 62.065132,322.614685 62.090439,314.460083 
z"/>
<path fill="#F7DC67" opacity="1.000000" stroke="none" 
	d="
M62.090744,338.460510 
	C119.772186,338.329010 177.377914,338.660919 235.477173,339.440552 
	C236.011063,342.598694 236.051407,345.309143 236.065857,348.483276 
	C235.996628,353.626740 235.953293,358.306519 235.446960,362.989929 
	C177.378159,362.994720 119.772354,362.995880 62.166550,362.997040 
	C62.116039,354.972687 62.065533,346.948303 62.090744,338.460510 
z"/>
<path fill="#F3D568" opacity="1.000000" stroke="none" 
	d="
M163.165848,214.995651 
	C163.115326,207.304749 163.064804,199.613846 163.548676,191.460541 
	C221.684494,190.995438 279.285950,190.992737 336.947205,191.456390 
	C336.963837,199.611633 336.920624,207.300522 336.416443,214.992233 
	C278.358917,214.995270 220.762375,214.995453 163.165848,214.995651 
z"/>
<path fill="#F4D245" opacity="1.000000" stroke="none" 
	d="
M62.166538,459.997528 
	C62.116524,452.306671 62.066513,444.615784 62.549324,436.462036 
	C120.690102,435.995331 178.298050,435.991455 235.940887,436.455536 
	C236.016876,442.287659 236.057983,447.651825 236.068604,453.450806 
	C235.992859,455.919739 235.947601,457.953827 235.439819,459.991089 
	C177.373703,459.995361 119.770119,459.996460 62.166538,459.997528 
z"/>
<path fill="#F6DA5F" opacity="1.000000" stroke="none" 
	d="
M62.090958,363.460510 
	C119.772354,362.995880 177.378159,362.994720 235.478455,363.453796 
	C236.012466,367.949554 236.051956,371.985077 236.069351,376.476746 
	C236.001755,380.284271 235.956253,383.635590 235.910767,386.986938 
	C178.301147,386.990936 120.691544,386.994965 62.623829,386.998413 
	C62.115608,379.306519 62.065491,371.615234 62.090958,363.460510 
z"/>
<path fill="#F5DA70" opacity="1.000000" stroke="none" 
	d="
M336.887390,190.990021 
	C279.285950,190.992737 221.684494,190.995438 163.625031,190.997192 
	C163.115906,183.304733 163.064804,175.613205 163.549088,167.459442 
	C221.678864,166.993805 279.273254,166.990417 336.928711,167.443573 
	C337.071594,171.271103 337.153381,174.642105 337.174194,178.472046 
	C337.037964,182.950653 336.962677,186.970337 336.887390,190.990021 
z"/>
<path fill="#F5D54D" opacity="1.000000" stroke="none" 
	d="
M235.906006,435.987579 
	C178.298050,435.991455 120.690102,435.995331 62.624077,435.998566 
	C62.116173,428.640015 62.066341,421.282043 62.091568,413.460571 
	C64.957420,412.664703 67.747910,412.045441 70.539055,412.042419 
	C125.353432,411.983429 180.167877,411.996094 235.479294,412.458740 
	C236.015961,418.287689 236.055634,423.652008 236.070312,429.451660 
	C235.998871,431.920532 235.952438,433.954071 235.906006,435.987579 
z"/>
<path fill="#F4D03C" opacity="1.000000" stroke="none" 
	d="
M62.091908,460.460999 
	C119.770119,459.996460 177.373703,459.995361 235.476013,460.458862 
	C236.067062,466.294250 236.159393,471.665070 236.251740,477.035858 
	C236.182175,478.739624 236.112595,480.443359 236.022064,482.573547 
	C180.781082,483.000000 125.561073,483.010773 70.341103,482.964417 
	C67.882477,482.962341 65.424294,482.440430 62.566334,482.079712 
	C62.116936,474.974030 62.067108,467.949249 62.091908,460.460999 
z"/>
<path fill="#F8E179" opacity="1.000000" stroke="none" 
	d="
M336.867645,166.987030 
	C279.273254,166.990417 221.678864,166.993805 163.626526,166.996185 
	C163.117783,159.971313 163.066971,152.947433 163.550369,145.460907 
	C221.670425,144.995483 279.256287,144.992752 336.911682,145.455063 
	C336.943329,152.942429 336.905487,159.964722 336.867645,166.987030 
z"/>
<path fill="#F8E382" opacity="1.000000" stroke="none" 
	d="
M235.916412,288.985260 
	C178.305099,288.989807 120.693771,288.994354 62.624340,288.998260 
	C62.158016,281.803436 62.149796,274.609222 62.988396,267.196899 
	C120.896736,266.984100 177.958252,266.989471 235.019760,266.994812 
	C235.352509,269.060089 235.685242,271.125366 236.022156,274.070068 
	C235.989685,279.628113 235.953049,284.306671 235.916412,288.985260 
z"/>
<path fill="#F2D060" opacity="1.000000" stroke="none" 
	d="
M163.090118,215.459045 
	C220.762375,214.995453 278.358917,214.995270 336.472290,215.445068 
	C337.071106,218.936951 337.153046,221.978851 337.179810,225.474213 
	C337.047577,229.282623 336.970581,232.637558 336.893585,235.992477 
	C279.289978,235.994568 221.686386,235.996658 163.624786,235.998032 
	C163.115967,229.305695 163.065170,222.614075 163.090118,215.459045 
z"/>
<path fill="#F8E382" opacity="1.000000" stroke="none" 
	d="
M336.842163,144.990005 
	C279.256287,144.992752 221.670425,144.995483 163.626617,144.997650 
	C162.866089,135.314835 171.882614,124.982201 184.100067,124.991325 
	C210.734863,125.011230 237.369705,124.993263 264.465576,124.957085 
	C266.844635,125.212425 268.761444,125.742775 270.680756,125.752075 
	C285.264679,125.822716 299.849915,125.883575 314.433105,125.758278 
	C323.585205,125.679642 330.167542,129.786209 335.087402,138.057037 
	C335.837616,140.805954 336.339905,142.897980 336.842163,144.990005 
z"/>
<path fill="#F9E588" opacity="1.000000" stroke="none" 
	d="
M234.995056,266.622253 
	C177.958252,266.989471 120.896736,266.984100 63.359245,266.968384 
	C64.752548,257.018616 71.881546,250.999496 81.786797,250.998489 
	C108.518257,250.995789 135.249725,250.993393 162.444168,250.955444 
	C180.019669,250.946671 197.132355,250.933884 214.244614,251.014587 
	C224.750885,251.064133 232.224609,256.627716 234.995056,266.622253 
z"/>
<path fill="#C47406" opacity="1.000000" stroke="none" 
	d="
M439.831177,321.991425 
	C439.872040,340.014984 439.912933,358.038513 439.492493,376.609192 
	C436.734772,377.436737 434.439087,377.953094 432.141785,377.960541 
	C412.310150,378.024902 392.478241,377.997864 372.646393,377.997437 
	C363.618134,377.997223 360.192352,375.658051 356.934235,367.284821 
	C353.861847,359.388885 351.090210,351.355988 347.592438,343.652985 
	C345.506073,339.058319 343.974243,333.295898 337.138306,332.567993 
	C337.013580,329.072479 336.948212,326.030151 336.921387,322.521423 
	C336.938629,314.032898 336.917297,306.010773 336.937500,297.522400 
	C337.063599,289.709839 337.148163,282.363617 337.588104,275.030212 
	C340.522827,277.149200 344.177063,278.738892 345.482758,281.456848 
	C349.632690,290.095428 353.098969,299.082550 356.472931,308.068787 
	C360.883789,319.816772 363.714233,321.999634 376.041443,321.998596 
	C397.304688,321.996826 418.567932,321.993896 439.831177,321.991425 
z"/>
<path fill="#D5930C" opacity="1.000000" stroke="none" 
	d="
M336.911682,145.455063 
	C336.339905,142.897980 335.837616,140.805954 335.247375,138.363464 
	C346.242218,140.177429 351.574066,147.980164 355.560822,157.745819 
	C358.336029,164.543747 362.122498,170.998215 366.106781,177.188004 
	C367.205353,178.894699 370.626648,179.858032 372.993744,179.879364 
	C394.965363,180.077347 416.939514,179.994614 439.370422,179.991302 
	C439.871796,196.014114 439.915680,212.038925 439.494995,228.610199 
	C436.739319,229.437134 434.449066,229.952698 432.157013,229.960938 
	C413.701050,230.027313 395.244812,229.998474 376.788635,229.998032 
	C367.543762,229.997803 356.517700,220.336121 353.834473,211.396469 
	C350.846832,201.442642 346.862213,191.765701 342.848297,182.161835 
	C342.078033,180.318863 339.161530,179.372894 337.235168,178.013107 
	C337.153381,174.642105 337.071594,171.271103 336.928711,167.443573 
	C336.905487,159.964722 336.943329,152.942429 336.911682,145.455063 
z"/>
<path fill="#CA7F08" opacity="1.000000" stroke="none" 
	d="
M439.894623,321.527100 
	C418.567932,321.993896 397.304688,321.996826 376.041443,321.998596 
	C363.714233,321.999634 360.883789,319.816772 356.472931,308.068787 
	C353.098969,299.082550 349.632690,290.095428 345.482758,281.456848 
	C344.177063,278.738892 340.522827,277.149200 337.491852,274.770752 
	C336.977875,274.324921 336.915558,274.151459 336.853241,273.977997 
	C336.903687,261.627258 336.954102,249.276535 336.949066,236.459137 
	C336.970581,232.637558 337.047577,229.282623 337.544159,225.472244 
	C340.012146,226.633026 343.003235,227.828537 343.945007,229.938675 
	C347.929077,238.865341 351.468567,248.003128 354.858917,257.178864 
	C359.051483,268.525574 366.527161,273.999603 378.519073,273.998596 
	C398.956390,273.996857 419.393707,273.993866 439.831024,273.991425 
	C439.873383,289.681885 439.915741,305.372314 439.894623,321.527100 
z"/>
<path fill="#CF890A" opacity="1.000000" stroke="none" 
	d="
M439.895569,273.527283 
	C419.393707,273.993866 398.956390,273.996857 378.519073,273.998596 
	C366.527161,273.999603 359.051483,268.525574 354.858917,257.178864 
	C351.468567,248.003128 347.929077,238.865341 343.945007,229.938675 
	C343.003235,227.828537 340.012146,226.633026 337.599365,225.018768 
	C337.153046,221.978851 337.071106,218.936951 336.933289,215.442230 
	C336.920624,207.300522 336.963837,199.611633 336.947205,191.456390 
	C336.962677,186.970337 337.037964,182.950653 337.174194,178.472046 
	C339.161530,179.372894 342.078033,180.318863 342.848297,182.161835 
	C346.862213,191.765701 350.846832,201.442642 353.834473,211.396469 
	C356.517700,220.336121 367.543762,229.997803 376.788635,229.998032 
	C395.244812,229.998474 413.701050,230.027313 432.157013,229.960938 
	C434.449066,229.952698 436.739319,229.437134 439.429260,229.074219 
	C439.872131,243.682236 439.916138,258.372711 439.895569,273.527283 
z"/>
<path fill="#BA6303" opacity="1.000000" stroke="none" 
	d="
M439.833099,410.994659 
	C439.875122,420.351532 439.917175,429.708435 439.479980,439.536774 
	C436.709473,440.337799 434.419250,440.944946 432.126770,440.953491 
	C412.012207,441.028351 391.893402,441.194336 371.786011,440.807953 
	C368.297607,440.740875 364.266632,438.903320 361.555664,436.616089 
	C358.704285,434.210327 357.609009,429.569397 352.314636,431.563782 
	C351.852539,431.737823 350.555328,430.248383 349.933868,429.335632 
	C348.441101,427.143188 347.207123,424.774078 345.707550,422.586761 
	C343.657959,419.597260 341.359375,416.949951 337.103149,418.546814 
	C337.000214,413.384064 336.946014,408.686646 336.926086,403.522400 
	C336.942322,394.033417 336.924286,385.011322 336.946198,375.525391 
	C337.059631,370.379395 337.133118,365.697205 337.560730,361.028320 
	C341.168762,364.146088 345.631073,366.677948 347.429016,370.472321 
	C351.370819,378.791138 353.718475,387.847900 357.169678,396.421143 
	C361.177429,406.377136 360.641663,411.309998 375.428375,411.083771 
	C396.892029,410.755341 418.364441,410.996429 439.833099,410.994659 
z"/>
<path fill="#BE6A04" opacity="1.000000" stroke="none" 
	d="
M439.896179,410.530060 
	C418.364441,410.996429 396.892029,410.755341 375.428375,411.083771 
	C360.641663,411.309998 361.177429,406.377136 357.169678,396.421143 
	C353.718475,387.847900 351.370819,378.791138 347.429016,370.472321 
	C345.631073,366.677948 341.168762,364.146088 337.500732,360.566711 
	C337.024811,356.057526 336.963135,352.023193 336.939575,347.524902 
	C337.051056,342.381012 337.124359,337.701141 337.197662,333.021240 
	C343.974243,333.295898 345.506073,339.058319 347.592438,343.652985 
	C351.090210,351.355988 353.861847,359.388885 356.934235,367.284821 
	C360.192352,375.658051 363.618134,377.997223 372.646393,377.997437 
	C392.478241,377.997864 412.310150,378.024902 432.141785,377.960541 
	C434.439087,377.953094 436.734772,377.436737 439.429840,377.073517 
	C439.872070,388.015625 439.915680,399.040558 439.896179,410.530060 
z"/>
<path fill="#B75E02" opacity="1.000000" stroke="none" 
	d="
M337.151886,419.012146 
	C341.359375,416.949951 343.657959,419.597260 345.707550,422.586761 
	C347.207123,424.774078 348.441101,427.143188 349.933868,429.335632 
	C350.555328,430.248383 351.852539,431.737823 352.314636,431.563782 
	C357.609009,429.569397 358.704285,434.210327 361.555664,436.616089 
	C364.266632,438.903320 368.297607,440.740875 371.786011,440.807953 
	C391.893402,441.194336 412.012207,441.028351 432.126770,440.953491 
	C434.419250,440.944946 436.709473,440.337799 439.417084,440.001282 
	C439.874512,450.017944 439.915649,460.041534 439.894531,470.529846 
	C415.595276,471.326233 391.358887,471.751984 367.120728,471.924316 
	C360.962433,471.968140 354.460022,465.418823 352.010376,458.603760 
	C350.062042,453.183319 347.643707,447.840332 344.660645,442.933136 
	C343.626343,441.231781 340.268951,440.942596 337.519226,439.554382 
	C337.009766,435.730835 336.953735,432.361359 336.935181,428.539795 
	C337.032379,425.062500 337.092133,422.037323 337.151886,419.012146 
z"/>
<path fill="#E2A415" opacity="1.000000" stroke="none" 
	d="
M336.897705,428.991882 
	C336.953735,432.361359 337.009766,435.730835 337.117249,439.557983 
	C337.102570,444.033508 337.036469,448.051392 336.477051,452.533142 
	C302.688812,453.003326 269.393951,453.009644 236.099106,453.015991 
	C236.057983,447.651825 236.016876,442.287659 235.940887,436.455536 
	C235.952438,433.954071 235.998871,431.920532 236.529266,429.446411 
	C270.308044,429.001160 303.602875,428.996521 336.897705,428.991882 
z"/>
<path fill="#E19F0C" opacity="1.000000" stroke="none" 
	d="
M236.068604,453.450806 
	C269.393951,453.009644 302.688812,453.003326 336.442841,452.994659 
	C336.922333,460.680908 336.942657,468.369507 336.925934,476.524902 
	C303.638153,476.999542 270.387360,477.007385 236.694153,477.025543 
	C236.159393,471.665070 236.067062,466.294250 235.938538,460.455688 
	C235.947601,457.953827 235.992859,455.919739 236.068604,453.450806 
z"/>
<path fill="#EEC44B" opacity="1.000000" stroke="none" 
	d="
M336.396942,273.982910 
	C336.915558,274.151459 336.977875,274.324921 337.136475,274.757874 
	C337.148163,282.363617 337.063599,289.709839 336.478271,297.525818 
	C302.679810,298.003174 269.382141,298.010803 236.084488,298.018433 
	C236.047440,295.308441 236.010391,292.598480 235.944885,289.436890 
	C235.953049,284.306671 235.989685,279.628113 236.042999,274.485992 
	C269.353363,274.010925 302.647003,273.999359 336.396942,273.982910 
z"/>
<path fill="#E6AF26" opacity="1.000000" stroke="none" 
	d="
M336.906219,375.989197 
	C336.924286,385.011322 336.942322,394.033417 336.467834,403.525726 
	C302.681122,404.003204 269.386963,404.010498 236.092819,404.017792 
	C236.054016,398.652924 236.015213,393.288055 235.943573,387.455078 
	C235.956253,383.635590 236.001755,380.284271 236.528564,376.470123 
	C270.308655,376.001282 303.607452,375.995239 336.906219,375.989197 
z"/>
<path fill="#E4A91D" opacity="1.000000" stroke="none" 
	d="
M236.064911,404.459320 
	C269.386963,404.010498 302.681122,404.003204 336.433533,403.992584 
	C336.946014,408.686646 337.000214,413.384064 337.103149,418.546814 
	C337.092133,422.037323 337.032379,425.062500 336.935181,428.539795 
	C303.602875,428.996521 270.308044,429.001160 236.554276,429.011047 
	C236.055634,423.652008 236.015961,418.287689 235.942200,412.455444 
	C235.951065,409.625275 235.994019,407.263062 236.064911,404.459320 
z"/>
<path fill="#ECBF42" opacity="1.000000" stroke="none" 
	d="
M236.060593,298.483093 
	C269.382141,298.010803 302.679810,298.003174 336.436707,297.992126 
	C336.917297,306.010773 336.938629,314.032898 336.463562,322.525146 
	C302.712463,323.008423 269.457764,323.021576 236.203049,323.034729 
	C236.144135,320.323608 236.085220,317.612457 236.008545,314.449646 
	C236.006088,308.981232 236.021393,303.964508 236.060593,298.483093 
z"/>
<path fill="#EABA3A" opacity="1.000000" stroke="none" 
	d="
M236.156372,323.496643 
	C269.457764,323.021576 302.712463,323.008423 336.424988,322.991577 
	C336.948212,326.030151 337.013580,329.072479 337.138306,332.567993 
	C337.124359,337.701141 337.051056,342.381012 336.480103,347.528320 
	C302.685577,348.003693 269.388672,348.011627 236.091736,348.019562 
	C236.051407,345.309143 236.011063,342.598694 235.940155,339.436707 
	C235.976273,333.976257 236.042984,328.967377 236.156372,323.496643 
z"/>
<path fill="#E8B531" opacity="1.000000" stroke="none" 
	d="
M236.065857,348.483276 
	C269.388672,348.011627 302.685577,348.003693 336.441956,347.992310 
	C336.963135,352.023193 337.024811,356.057526 337.146545,360.553406 
	C337.133118,365.697205 337.059631,370.379395 336.946198,375.525391 
	C303.607452,375.995239 270.308655,376.001282 236.550674,376.013977 
	C236.051956,371.985077 236.012466,367.949554 235.941467,363.450134 
	C235.953293,358.306519 235.996628,353.626740 236.065857,348.483276 
z"/>
</svg>