<svg version="1.1" id="Layer_1" xmlns="http://www.w3.org/2000/svg" xmlns:xlink="http://www.w3.org/1999/xlink" x="0px" y="0px"
	 width="100%" viewBox="0 0 512 512" enable-background="new 0 0 512 512" xml:space="preserve">
<path fill="#000000" opacity="1.000000" stroke="none" 
	d="
M276.000000,513.000000 
	C184.022324,513.000000 92.544647,513.000000 1.033484,513.000000 
	C1.033484,342.397308 1.033484,171.794586 1.033484,1.095938 
	C171.561035,1.095938 342.122131,1.095938 512.841614,1.095938 
	C512.841614,171.666550 512.841614,342.333252 512.841614,513.000000 
	C434.127899,513.000000 355.313934,513.000000 276.000000,513.000000 
M185.825134,104.365280 
	C185.427582,104.606506 185.030014,104.847733 184.638031,105.865562 
	C184.893448,105.907707 185.148880,105.949860 185.130219,104.978798 
	C184.346512,104.743423 183.563248,104.304268 182.779022,104.302483 
	C163.094818,104.257675 143.410400,104.232849 123.726578,104.324318 
	C122.676102,104.329201 121.630493,105.382553 121.264374,105.125603 
	C115.809509,102.461639 118.112358,107.381348 118.110077,108.793152 
	C117.986488,185.284653 118.000679,261.776367 118.000771,338.268066 
	C118.000771,340.390747 118.000778,342.513428 118.000778,344.824097 
	C157.781006,344.824097 197.219177,344.824097 237.402023,344.824097 
	C236.797043,343.680756 236.370911,342.875427 235.355667,341.700531 
	C232.677048,338.023773 230.199020,334.178467 227.279587,330.704041 
	C220.425949,322.547577 213.184723,314.713440 206.425201,306.482086 
	C197.371063,295.456482 188.807526,284.026459 179.698090,273.048248 
	C168.361359,259.385803 156.684860,246.005219 145.150146,232.507141 
	C142.412003,229.302917 139.654190,226.115479 136.812988,222.003021 
	C136.812988,216.440826 136.812988,210.878647 136.812988,205.050644 
	C153.085953,205.050644 168.637604,205.081131 184.188721,205.006317 
	C185.853119,204.998322 187.514557,204.376389 190.014313,204.024551 
	C197.796997,203.210312 205.464020,202.023972 212.609818,196.922058 
	C213.427872,196.293045 214.245911,195.664017 215.005249,195.008255 
	C215.005249,195.008255 215.021423,195.070724 215.708786,194.982452 
	C217.493561,193.329269 219.278320,191.676071 221.004272,190.004257 
	C221.004272,190.004257 221.022903,190.063080 221.652878,189.812347 
	C226.683853,184.939941 231.419418,179.897263 232.107468,171.584534 
	C236.553024,159.802780 235.923599,147.983383 231.937302,136.302734 
	C224.617523,114.854263 208.195526,106.782112 189.200638,104.964867 
	C188.165375,104.944931 187.130096,104.924995 185.825134,104.365280 
M239.231979,417.583832 
	C239.821655,417.822845 240.411331,418.061829 240.999710,418.988739 
	C242.640961,422.365204 243.921448,425.643646 237.871445,427.077087 
	C212.248413,427.050812 186.625351,427.013550 161.002365,427.040283 
	C160.031082,427.041290 159.060440,427.661346 157.995026,428.923370 
	C158.027145,433.952820 158.059265,438.982239 158.404770,444.829651 
	C184.963882,444.886414 211.522980,444.950073 238.082108,444.959381 
	C238.732895,444.959595 239.383881,444.356537 240.838608,444.055756 
	C252.350983,442.696198 260.520020,432.458618 260.135742,419.872345 
	C259.850586,410.534027 249.210892,400.508057 238.581345,399.203125 
	C218.408386,399.170288 198.235443,399.137451 177.463211,398.653076 
	C175.320068,394.631378 174.997360,391.083466 180.938202,388.979370 
	C205.869644,388.986389 230.801132,389.012726 255.732407,388.949951 
	C257.152771,388.946381 258.571289,388.213318 260.116180,386.914398 
	C260.116180,382.011200 260.116180,377.108002 260.116180,372.006134 
	C232.650574,372.006134 206.061569,371.887238 179.474609,372.066986 
	C169.406784,372.135071 162.841965,378.695831 159.281174,386.913757 
	C153.567673,400.099854 163.275574,415.209778 179.006546,416.983124 
	C199.014130,417.009186 219.021698,417.035217 238.995575,416.989563 
	C238.995575,416.989563 238.923462,417.022400 239.231979,417.583832 
M22.924080,443.030029 
	C27.930918,442.997650 32.937756,442.965271 38.792385,442.678558 
	C38.792385,433.487488 38.792385,424.296417 38.792385,414.997253 
	C54.470020,414.997253 69.216179,414.997253 83.903862,415.721344 
	C88.672539,422.366547 93.518852,428.957916 98.180664,435.677246 
	C100.964958,439.690430 103.716721,443.681274 109.177711,443.893097 
	C113.863457,444.074829 118.561844,443.930786 124.352325,443.930786 
	C117.709755,434.602478 111.232506,425.506348 104.743149,416.393188 
	C114.631371,412.746033 120.373238,407.590118 123.081680,400.962738 
	C127.237679,390.793335 118.741852,374.159454 105.116478,371.931061 
	C103.699493,371.608887 102.282661,371.006744 100.865509,371.005981 
	C74.574387,370.992096 48.283222,371.049927 21.161942,371.381927 
	C21.107334,394.600067 21.044872,417.818207 21.040384,441.036346 
	C21.040264,441.659332 21.667887,442.282440 22.924080,443.030029 
M375.021057,402.926544 
	C375.021057,407.189026 375.021057,411.451508 375.021057,415.693909 
	C385.637451,415.693909 395.683563,415.693909 405.834259,415.693909 
	C405.834259,410.927826 405.834259,406.465698 405.600861,401.161682 
	C396.060516,401.108887 386.520111,401.037750 376.979797,401.046661 
	C376.374817,401.047241 375.770416,401.671051 375.021057,402.926544 
M134.863159,444.960022 
	C139.599564,444.934784 144.335953,444.909546 149.867538,444.543030 
	C149.911652,424.092743 149.956055,403.642487 149.999542,383.192200 
	C150.005554,380.365387 150.067581,377.535248 149.914474,374.716949 
	C149.899628,374.443573 148.541168,374.243164 147.184708,373.549194 
	C142.883820,373.696259 138.582947,373.843353 133.813995,373.319122 
	C133.541885,374.133759 133.033646,374.947906 133.032089,375.763062 
	C132.990051,397.818298 132.988007,419.873718 133.040070,441.928925 
	C133.042404,442.914124 133.615967,443.897919 134.863159,444.960022 
M420.000275,374.423981 
	C419.335358,373.944305 418.678589,373.062103 418.004242,373.048462 
	C412.448486,372.936096 406.889496,372.984985 400.638763,372.984985 
	C401.184723,374.675964 401.583832,375.912170 402.253510,377.792938 
	C408.661041,389.202850 415.035645,400.631439 421.488739,412.015533 
	C425.240692,418.634491 429.127747,425.176697 432.936493,431.763611 
	C435.370911,435.973724 436.811157,441.900269 440.450714,443.962708 
	C444.377075,446.187653 450.347809,444.805023 455.426758,444.995087 
	C455.593018,445.001312 455.765778,444.966858 455.925385,445.000031 
	C459.864349,445.818298 461.549652,443.416229 463.317932,440.401123 
	C474.957947,420.553375 486.779510,400.812134 498.473694,380.995941 
	C499.657898,378.989227 500.389038,376.715088 501.588654,373.975250 
	C496.898071,373.975250 493.021332,374.410736 489.283264,373.876312 
	C483.211914,373.008301 480.148346,375.870087 477.413452,380.872498 
	C470.046967,394.346649 462.214386,407.565948 454.566895,420.886444 
	C453.521759,422.706818 452.477142,424.527466 450.785065,427.475769 
	C439.983551,409.273438 429.922791,392.319366 420.000275,374.423981 
M297.178406,372.994720 
	C292.243286,374.644348 286.759949,375.416626 282.469360,378.097687 
	C265.210510,388.882294 259.636230,415.354218 274.944122,432.313385 
	C280.859680,438.867065 287.999176,444.677002 298.330780,444.846313 
	C321.539642,444.846313 344.748535,444.846313 367.695435,444.846313 
	C367.695435,438.580658 367.695435,432.834473 367.695435,427.091675 
	C344.931122,427.091675 322.474213,427.091675 299.330322,427.177612 
	C293.699036,427.935120 290.584076,424.269714 287.307739,420.590332 
	C279.888611,412.258606 282.122009,398.345673 292.269379,393.746063 
	C296.923981,391.636230 302.308350,390.261871 307.398438,390.144501 
	C325.697144,389.722382 344.011688,390.016510 362.319550,389.912994 
	C363.953918,389.903778 366.016632,389.432037 367.121918,388.378998 
	C369.239380,386.361633 368.479736,376.784088 365.787048,373.335236 
	C343.177368,373.244659 320.567719,373.154053 297.178406,372.994720 
M397.993347,342.095184 
	C397.993347,297.848938 397.993347,253.602676 397.993347,208.237396 
	C396.327789,209.653076 395.545258,210.318207 394.164948,211.277695 
	C390.435669,216.083572 386.446960,220.713654 383.041504,225.738968 
	C378.593170,232.303192 374.940216,239.417328 370.353302,245.874527 
	C360.042816,260.388977 349.348175,274.630188 338.847992,289.010437 
	C332.378784,297.870209 325.827972,306.676361 319.595184,315.700928 
	C314.189056,323.528534 309.178894,331.629639 303.435150,339.957397 
	C303.170898,340.302643 302.906647,340.647888 302.181580,341.341675 
	C302.102814,341.905518 302.024048,342.469330 301.265503,343.471069 
	C300.285431,346.809387 302.770111,345.984802 304.389557,345.986023 
	C334.492676,346.008850 364.595825,346.014923 394.698822,345.954132 
	C395.787445,345.951935 396.874603,345.231659 398.117981,344.252625 
	C398.062500,343.849487 398.007019,343.446381 397.993347,342.095184 
M396.016113,65.017181 
	C331.384918,65.017181 266.753723,65.017181 202.122528,65.017181 
	C202.016647,65.418320 201.910751,65.819458 201.804871,66.220596 
	C255.255020,81.186584 279.320282,117.198746 271.346313,170.977615 
	C265.586792,209.821564 238.520172,231.712143 199.708649,239.874237 
	C202.484344,243.491043 204.734207,246.788284 207.351257,249.762405 
	C214.465546,257.847321 221.910736,265.645996 228.892136,273.841522 
	C235.378769,281.456207 241.267334,289.579468 247.732422,297.213623 
	C253.731812,304.297882 260.332611,310.874847 266.286072,317.995026 
	C268.746765,320.937958 270.148346,320.808136 272.070160,317.888794 
	C275.025269,313.399841 277.937683,308.877716 281.045288,304.495270 
	C287.717773,295.085510 294.590149,285.816956 301.222198,276.379211 
	C311.214752,262.159363 320.974976,247.775848 331.009399,233.585983 
	C345.146149,213.595062 359.493469,193.753113 373.652344,173.777710 
	C381.535248,162.656448 389.218536,151.393692 397.761597,139.727402 
	C397.838745,115.478783 397.923645,91.230171 397.948547,66.981499 
	C397.949188,66.374512 397.288116,65.766838 396.016113,65.017181 
z"/>
<path fill="#F7B218" opacity="1.000000" stroke="none" 
	d="
M396.991821,140.194733 
	C389.218536,151.393692 381.535248,162.656448 373.652344,173.777710 
	C359.493469,193.753113 345.146149,213.595062 331.009399,233.585983 
	C320.974976,247.775848 311.214752,262.159363 301.222198,276.379211 
	C294.590149,285.816956 287.717773,295.085510 281.045288,304.495270 
	C277.937683,308.877716 275.025269,313.399841 272.070160,317.888794 
	C270.148346,320.808136 268.746765,320.937958 266.286072,317.995026 
	C260.332611,310.874847 253.731812,304.297882 247.732422,297.213623 
	C241.267334,289.579468 235.378769,281.456207 228.892136,273.841522 
	C221.910736,265.645996 214.465546,257.847321 207.351257,249.762405 
	C204.734207,246.788284 202.484344,243.491043 199.708649,239.874237 
	C238.520172,231.712143 265.586792,209.821564 271.346313,170.977615 
	C279.320282,117.198746 255.255020,81.186584 201.804871,66.220596 
	C201.910751,65.819458 202.016647,65.418320 202.122528,65.017181 
	C266.753723,65.017181 331.384918,65.017181 396.482178,65.546654 
	C396.962799,90.782326 396.977325,115.488533 396.991821,140.194733 
z"/>
<path fill="#283373" opacity="1.000000" stroke="none" 
	d="
M120.582619,105.947815 
	C121.630493,105.382553 122.676102,104.329201 123.726578,104.324318 
	C143.410400,104.232849 163.094818,104.257675 182.779022,104.302483 
	C183.563248,104.304268 184.346512,104.743423 185.682037,105.509506 
	C187.478622,105.725960 188.723404,105.411705 189.968185,105.097443 
	C208.195526,106.782112 224.617523,114.854263 231.937302,136.302734 
	C235.923599,147.983383 236.553024,159.802780 231.696350,172.160828 
	C228.416016,177.228943 225.508118,181.696838 222.703888,186.228882 
	C221.976913,187.403824 221.574432,188.779572 221.022888,190.063080 
	C221.022903,190.063080 221.004272,190.004257 220.673340,189.955444 
	C218.568741,191.628006 216.795090,193.349365 215.021423,195.070724 
	C215.021423,195.070724 215.005249,195.008255 214.684052,194.924179 
	C213.574387,195.623734 212.785934,196.407364 211.997467,197.190979 
	C205.464020,202.023972 197.796997,203.210312 189.314713,203.697449 
	C171.080368,203.370346 153.545639,203.370346 134.647110,203.370346 
	C135.429459,210.143082 136.167450,216.531708 136.905441,222.920319 
	C139.654190,226.115479 142.412003,229.302917 145.150146,232.507141 
	C156.684860,246.005219 168.361359,259.385803 179.698090,273.048248 
	C188.807526,284.026459 197.371063,295.456482 206.425201,306.482086 
	C213.184723,314.713440 220.425949,322.547577 227.279587,330.704041 
	C230.199020,334.178467 232.677048,338.023773 235.501953,342.234039 
	C234.256302,343.085114 232.864761,343.678040 231.472382,343.680023 
	C195.677368,343.730743 159.882065,343.664246 124.087456,343.796692 
	C120.047874,343.811615 119.049019,342.407440 119.053665,338.575104 
	C119.145775,262.656342 119.113121,186.737396 119.183067,110.818573 
	C119.184563,109.194565 120.095787,107.571381 120.582619,105.947815 
z"/>
<path fill="#293473" opacity="1.000000" stroke="none" 
	d="
M303.993713,339.609863 
	C309.178894,331.629639 314.189056,323.528534 319.595184,315.700928 
	C325.827972,306.676361 332.378784,297.870209 338.847992,289.010437 
	C349.348175,274.630188 360.042816,260.388977 370.353302,245.874527 
	C374.940216,239.417328 378.593170,232.303192 383.041504,225.738968 
	C386.446960,220.713654 390.435669,216.083572 394.848175,211.268875 
	C395.995544,213.232513 396.860687,215.204178 396.864594,217.177551 
	C396.943634,257.067505 396.908508,296.957703 396.967590,336.847717 
	C396.970642,338.913361 397.608978,340.978088 397.951538,343.043243 
	C398.007019,343.446381 398.062500,343.849487 397.584167,344.454651 
	C366.555023,344.702972 336.059692,344.769470 305.564545,344.720825 
	C304.357208,344.718903 303.151672,343.620636 301.945312,343.033173 
	C302.024048,342.469330 302.102814,341.905518 302.749084,341.068848 
	C303.542328,340.400635 303.768036,340.005249 303.993713,339.609863 
z"/>
<path fill="#2B3675" opacity="1.000000" stroke="none" 
	d="
M178.086609,416.866699 
	C163.275574,415.209778 153.567673,400.099854 159.281174,386.913757 
	C162.841965,378.695831 169.406784,372.135071 179.474609,372.066986 
	C206.061569,371.887238 232.650574,372.006134 260.116180,372.006134 
	C260.116180,377.108002 260.116180,382.011200 259.592224,387.282837 
	C234.582916,387.714844 210.097427,387.755188 185.612411,387.887909 
	C183.738556,387.898071 181.868256,388.561066 179.996292,388.920624 
	C174.997360,391.083466 175.320068,394.631378 178.054276,399.175690 
	C198.765152,399.785614 218.884949,399.872955 239.004761,399.960266 
	C249.210892,400.508057 259.850586,410.534027 260.135742,419.872345 
	C260.520020,432.458618 252.350983,442.696198 239.969513,443.976624 
	C212.097397,443.935547 185.094391,443.973633 158.091385,444.011688 
	C158.059265,438.982239 158.027145,433.952820 158.499680,428.523743 
	C184.035629,428.131958 209.066940,428.157196 234.098114,428.105896 
	C235.657761,428.102722 237.216202,427.499817 238.775208,427.175903 
	C243.921448,425.643646 242.640961,422.365204 240.863739,418.338989 
	C240.126328,417.466980 239.524887,417.244690 238.923462,417.022400 
	C238.923462,417.022400 238.995575,416.989563 238.712326,416.730865 
	C237.623474,416.321045 236.818069,416.039154 236.012238,416.037933 
	C217.786942,416.009979 199.561554,415.998108 181.336349,416.046356 
	C180.252380,416.049225 179.169815,416.581055 178.086609,416.866699 
z"/>
<path fill="#2A3574" opacity="1.000000" stroke="none" 
	d="
M105.943283,372.113983 
	C118.741852,374.159454 127.237679,390.793335 123.081680,400.962738 
	C120.373238,407.590118 114.631371,412.746033 104.743149,416.393188 
	C111.232506,425.506348 117.709755,434.602478 124.352325,443.930786 
	C118.561844,443.930786 113.863457,444.074829 109.177711,443.893097 
	C103.716721,443.681274 100.964958,439.690430 98.180664,435.677246 
	C93.518852,428.957916 88.672539,422.366547 83.661545,415.036743 
	C68.360252,414.352173 53.301285,414.352173 37.491249,414.352173 
	C37.491249,423.339905 37.491249,432.098633 37.062096,440.906372 
	C31.839046,440.943604 27.045153,440.931793 22.185474,440.460724 
	C22.169725,417.690674 22.219763,395.379883 22.721197,373.048401 
	C49.018887,373.006256 74.865227,373.001160 100.711365,372.927155 
	C102.456100,372.922150 104.199348,372.397125 105.943283,372.113983 
M39.003922,390.923492 
	C39.028469,393.920166 39.053017,396.916870 39.009670,400.496094 
	C39.619602,400.666840 40.229336,400.985992 40.839493,400.986816 
	C60.614758,401.013367 80.390114,401.025391 100.165268,400.971497 
	C101.419746,400.968079 102.672737,400.416382 104.562424,399.769073 
	C108.086906,395.773834 106.916428,392.577942 102.315964,389.258362 
	C101.833069,389.146210 101.350311,388.936615 100.867256,388.935944 
	C81.227425,388.907990 61.587536,388.882690 41.947861,388.935760 
	C40.975613,388.938385 40.005264,389.644775 39.003922,390.923492 
z"/>
<path fill="#2D3876" opacity="1.000000" stroke="none" 
	d="
M366.389221,374.020660 
	C368.479736,376.784088 369.239380,386.361633 367.121918,388.378998 
	C366.016632,389.432037 363.953918,389.903778 362.319550,389.912994 
	C344.011688,390.016510 325.697144,389.722382 307.398438,390.144501 
	C302.308350,390.261871 296.923981,391.636230 292.269379,393.746063 
	C282.122009,398.345673 279.888611,412.258606 287.307739,420.590332 
	C290.584076,424.269714 293.699036,427.935120 299.879730,427.517365 
	C322.318359,427.857117 344.207581,427.857117 366.214722,427.857117 
	C366.214722,433.734619 366.214722,438.633453 366.214722,444.038696 
	C343.219238,444.038696 320.599030,444.038696 297.978821,444.038696 
	C287.999176,444.677002 280.859680,438.867065 274.944122,432.313385 
	C259.636230,415.354218 265.210510,388.882294 282.469360,378.097687 
	C286.759949,375.416626 292.243286,374.644348 297.792084,373.408325 
	C321.066925,373.888184 343.728058,373.954407 366.389221,374.020660 
z"/>
<path fill="#F7B51F" opacity="1.000000" stroke="none" 
	d="
M419.862000,375.365326 
	C429.922791,392.319366 439.983551,409.273438 450.785065,427.475769 
	C452.477142,424.527466 453.521759,422.706818 454.566895,420.886444 
	C462.214386,407.565948 470.046967,394.346649 477.413452,380.872498 
	C480.148346,375.870087 483.211914,373.008301 489.283264,373.876312 
	C493.021332,374.410736 496.898071,373.975250 501.588654,373.975250 
	C500.389038,376.715088 499.657898,378.989227 498.473694,380.995941 
	C486.779510,400.812134 474.957947,420.553375 463.317932,440.401123 
	C461.549652,443.416229 459.864349,445.818298 455.925385,445.000031 
	C455.765778,444.966858 455.593018,445.001312 455.426758,444.995087 
	C450.347809,444.805023 444.377075,446.187653 440.450714,443.962708 
	C436.811157,441.900269 435.370911,435.973724 432.936493,431.763611 
	C429.127747,425.176697 425.240692,418.634491 421.488739,412.015533 
	C415.035645,400.631439 408.661041,389.202850 402.235535,377.072205 
	C408.099030,376.022797 413.980499,375.694061 419.862000,375.365326 
z"/>
<path fill="#283373" opacity="1.000000" stroke="none" 
	d="
M134.282043,373.990417 
	C138.582947,373.843353 142.883820,373.696259 147.860138,374.014526 
	C148.688065,376.287659 148.968750,378.095123 148.973480,379.903290 
	C149.030167,401.563568 149.045914,423.223969 149.072357,444.884338 
	C144.335953,444.909546 139.599564,444.934784 134.425049,444.462128 
	C133.991058,441.131226 133.987762,438.298218 134.000488,435.465240 
	C134.092545,414.973633 134.187805,394.482025 134.282043,373.990417 
z"/>
<path fill="#F7B217" opacity="1.000000" stroke="none" 
	d="
M405.834259,402.003540 
	C405.834259,406.465698 405.834259,410.927826 405.834259,415.693909 
	C395.683563,415.693909 385.637451,415.693909 375.021057,415.693909 
	C375.021057,411.451508 375.021057,407.189026 375.551270,402.466064 
	C385.999084,402.004913 395.916656,402.004211 405.834259,402.003540 
z"/>
<path fill="#9398B7" opacity="1.000000" stroke="none" 
	d="
M120.923492,105.536713 
	C120.095787,107.571381 119.184563,109.194565 119.183067,110.818573 
	C119.113121,186.737396 119.145775,262.656342 119.053665,338.575104 
	C119.049019,342.407440 120.047874,343.811615 124.087456,343.796692 
	C159.882065,343.664246 195.677368,343.730743 231.472382,343.680023 
	C232.864761,343.678040 234.256302,343.085114 235.796509,342.418823 
	C236.370911,342.875427 236.797043,343.680756 237.402023,344.824097 
	C197.219177,344.824097 157.781006,344.824097 118.000778,344.824097 
	C118.000778,342.513428 118.000771,340.390747 118.000771,338.268066 
	C118.000679,261.776367 117.986488,185.284653 118.110077,108.793152 
	C118.112358,107.381348 115.809509,102.461639 120.923492,105.536713 
z"/>
<path fill="#525A8E" opacity="1.000000" stroke="none" 
	d="
M105.529877,372.022522 
	C104.199348,372.397125 102.456100,372.922150 100.711365,372.927155 
	C74.865227,373.001160 49.018887,373.006256 22.662359,372.720093 
	C22.098774,371.972534 22.045422,371.532562 21.992069,371.092621 
	C48.283222,371.049927 74.574387,370.992096 100.865509,371.005981 
	C102.282661,371.006744 103.699493,371.608887 105.529877,372.022522 
z"/>
<path fill="#C9CCDC" opacity="1.000000" stroke="none" 
	d="
M298.154785,444.442505 
	C320.599030,444.038696 343.219238,444.038696 366.214722,444.038696 
	C366.214722,438.633453 366.214722,433.734619 366.214722,427.857117 
	C344.207581,427.857117 322.318359,427.857117 300.223206,427.474396 
	C322.474213,427.091675 344.931122,427.091675 367.695435,427.091675 
	C367.695435,432.834473 367.695435,438.580658 367.695435,444.846313 
	C344.748535,444.846313 321.539642,444.846313 298.154785,444.442505 
z"/>
<path fill="#B1B5CC" opacity="1.000000" stroke="none" 
	d="
M136.859222,222.461670 
	C136.167450,216.531708 135.429459,210.143082 134.647110,203.370346 
	C153.545639,203.370346 171.080368,203.370346 188.896240,203.704803 
	C187.514557,204.376389 185.853119,204.998322 184.188721,205.006317 
	C168.637604,205.081131 153.085953,205.050644 136.812988,205.050644 
	C136.812988,210.878647 136.812988,216.440826 136.859222,222.461670 
z"/>
<path fill="#5B6394" opacity="1.000000" stroke="none" 
	d="
M397.972443,342.569214 
	C397.608978,340.978088 396.970642,338.913361 396.967590,336.847717 
	C396.908508,296.957703 396.943634,257.067505 396.864594,217.177551 
	C396.860687,215.204178 395.995544,213.232513 395.147034,211.121704 
	C395.545258,210.318207 396.327789,209.653076 397.993347,208.237396 
	C397.993347,253.602676 397.993347,297.848938 397.972443,342.569214 
z"/>
<path fill="#C8CBDB" opacity="1.000000" stroke="none" 
	d="
M301.605408,343.252136 
	C303.151672,343.620636 304.357208,344.718903 305.564545,344.720825 
	C336.059692,344.769470 366.555023,344.702972 397.506409,344.751373 
	C396.874603,345.231659 395.787445,345.951935 394.698822,345.954132 
	C364.595825,346.014923 334.492676,346.008850 304.389557,345.986023 
	C302.770111,345.984802 300.285431,346.809387 301.605408,343.252136 
z"/>
<path fill="#C9CCDC" opacity="1.000000" stroke="none" 
	d="
M158.248077,444.420654 
	C185.094391,443.973633 212.097397,443.935547 239.567596,443.966187 
	C239.383881,444.356537 238.732895,444.959595 238.082108,444.959381 
	C211.522980,444.950073 184.963882,444.886414 158.248077,444.420654 
z"/>
<path fill="#C8CBDB" opacity="1.000000" stroke="none" 
	d="
M238.323334,427.126495 
	C237.216202,427.499817 235.657761,428.102722 234.098114,428.105896 
	C209.066940,428.157196 184.035629,428.131958 158.546906,428.058502 
	C159.060440,427.661346 160.031082,427.041290 161.002365,427.040283 
	C186.625351,427.013550 212.248413,427.050812 238.323334,427.126495 
z"/>
<path fill="#9398B7" opacity="1.000000" stroke="none" 
	d="
M180.467255,388.950012 
	C181.868256,388.561066 183.738556,387.898071 185.612411,387.887909 
	C210.097427,387.755188 234.582916,387.714844 259.529480,387.735504 
	C258.571289,388.213318 257.152771,388.946381 255.732407,388.949951 
	C230.801132,389.012726 205.869644,388.986389 180.467255,388.950012 
z"/>
<path fill="#F9C552" opacity="1.000000" stroke="none" 
	d="
M397.376709,139.961060 
	C396.977325,115.488533 396.962799,90.782326 396.941956,65.617798 
	C397.288116,65.766838 397.949188,66.374512 397.948547,66.981499 
	C397.923645,91.230171 397.838745,115.478783 397.376709,139.961060 
z"/>
<path fill="#C8CBDB" opacity="1.000000" stroke="none" 
	d="
M37.491249,440.857361 
	C37.491249,432.098633 37.491249,423.339905 37.491249,414.352173 
	C53.301285,414.352173 68.360252,414.352173 83.690781,414.674713 
	C69.216179,414.997253 54.470020,414.997253 38.792385,414.997253 
	C38.792385,424.296417 38.792385,433.487488 38.259422,442.467651 
	C37.648056,441.790283 37.569653,441.323822 37.491249,440.857361 
z"/>
<path fill="#C9CCDC" opacity="1.000000" stroke="none" 
	d="
M149.469940,444.713684 
	C149.045914,423.223969 149.030167,401.563568 148.973480,379.903290 
	C148.968750,378.095123 148.688065,376.287659 148.170990,374.244385 
	C148.541168,374.243164 149.899628,374.443573 149.914474,374.716949 
	C150.067581,377.535248 150.005554,380.365387 149.999542,383.192200 
	C149.956055,403.642487 149.911652,424.092743 149.469940,444.713684 
z"/>
<path fill="#C9CCDC" opacity="1.000000" stroke="none" 
	d="
M21.577005,371.237274 
	C22.045422,371.532562 22.098774,371.972534 22.210964,372.740784 
	C22.219763,395.379883 22.169725,417.690674 22.125231,440.789795 
	C22.088108,442.020599 22.045443,442.463043 22.002773,442.905487 
	C21.667887,442.282440 21.040264,441.659332 21.040384,441.036346 
	C21.044872,417.818207 21.107334,394.600067 21.577005,371.237274 
z"/>
<path fill="#C9CCDC" opacity="1.000000" stroke="none" 
	d="
M134.048019,373.654785 
	C134.187805,394.482025 134.092545,414.973633 134.000488,435.465240 
	C133.987762,438.298218 133.991058,441.131226 133.955185,444.423309 
	C133.615967,443.897919 133.042404,442.914124 133.040070,441.928925 
	C132.988007,419.873718 132.990051,397.818298 133.032089,375.763062 
	C133.033646,374.947906 133.541885,374.133759 134.048019,373.654785 
z"/>
<path fill="#9398B7" opacity="1.000000" stroke="none" 
	d="
M366.088135,373.677948 
	C343.728058,373.954407 321.066925,373.888184 298.181885,373.442719 
	C320.567719,373.154053 343.177368,373.244659 366.088135,373.677948 
z"/>
<path fill="#9398B7" opacity="1.000000" stroke="none" 
	d="
M238.793060,399.581696 
	C218.884949,399.872955 198.765152,399.785614 178.353912,399.401459 
	C198.235443,399.137451 218.408386,399.170288 238.793060,399.581696 
z"/>
<path fill="#5D6595" opacity="1.000000" stroke="none" 
	d="
M178.546570,416.924927 
	C179.169815,416.581055 180.252380,416.049225 181.336349,416.046356 
	C199.561554,415.998108 217.786942,416.009979 236.012238,416.037933 
	C236.818069,416.039154 237.623474,416.321045 238.729187,416.766724 
	C219.021698,417.035217 199.014130,417.009186 178.546570,416.924927 
z"/>
<path fill="#FAD071" opacity="1.000000" stroke="none" 
	d="
M419.931152,374.894653 
	C413.980499,375.694061 408.099030,376.022797 402.100250,376.749939 
	C401.583832,375.912170 401.184723,374.675964 400.638763,372.984985 
	C406.889496,372.984985 412.448486,372.936096 418.004242,373.048462 
	C418.678589,373.062103 419.335358,373.944305 419.931152,374.894653 
z"/>
<path fill="#7980A7" opacity="1.000000" stroke="none" 
	d="
M221.337891,189.937714 
	C221.574432,188.779572 221.976913,187.403824 222.703888,186.228882 
	C225.508118,181.696838 228.416016,177.228943 231.513046,172.523727 
	C231.419418,179.897263 226.683853,184.939941 221.337891,189.937714 
z"/>
<path fill="#525A8E" opacity="1.000000" stroke="none" 
	d="
M22.463428,442.967773 
	C22.045443,442.463043 22.088108,442.020599 22.191017,441.249084 
	C27.045153,440.931793 31.839046,440.943604 37.062096,440.906372 
	C37.569653,441.323822 37.648056,441.790283 37.835526,442.594849 
	C32.937756,442.965271 27.930918,442.997650 22.463428,442.967773 
z"/>
<path fill="#FCECC5" opacity="1.000000" stroke="none" 
	d="
M405.717560,401.582611 
	C395.916656,402.004211 385.999084,402.004913 375.623596,402.005249 
	C375.770416,401.671051 376.374817,401.047241 376.979797,401.046661 
	C386.520111,401.037750 396.060516,401.108887 405.717560,401.582611 
z"/>
<path fill="#7980A7" opacity="1.000000" stroke="none" 
	d="
M215.365112,195.026581 
	C216.795090,193.349365 218.568741,191.628006 220.702759,189.964767 
	C219.278320,191.676071 217.493561,193.329269 215.365112,195.026581 
z"/>
<path fill="#7980A7" opacity="1.000000" stroke="none" 
	d="
M212.303650,197.056519 
	C212.785934,196.407364 213.574387,195.623734 214.713394,194.937561 
	C214.245911,195.664017 213.427872,196.293045 212.303650,197.056519 
z"/>
<path fill="#8E93B4" opacity="1.000000" stroke="none" 
	d="
M189.584412,105.031158 
	C188.723404,105.411705 187.478622,105.725960 185.819077,106.016113 
	C185.148880,105.949860 184.893448,105.907707 185.014786,105.542191 
	C185.625977,105.114227 185.860413,105.009644 186.094833,104.905060 
	C187.130096,104.924995 188.165375,104.944931 189.584412,105.031158 
z"/>
<path fill="#5D6595" opacity="1.000000" stroke="none" 
	d="
M239.077713,417.303131 
	C239.524887,417.244690 240.126328,417.466980 240.864395,417.995056 
	C240.411331,418.061829 239.821655,417.822845 239.077713,417.303131 
z"/>
<path fill="#9398B7" opacity="1.000000" stroke="none" 
	d="
M185.011993,105.153885 
	C185.030014,104.847733 185.427582,104.606506 185.959991,104.635170 
	C185.860413,105.009644 185.625977,105.114227 185.011993,105.153885 
z"/>
<path fill="#5B6394" opacity="1.000000" stroke="none" 
	d="
M303.714417,339.783630 
	C303.768036,340.005249 303.542328,340.400635 302.979523,340.894592 
	C302.906647,340.647888 303.170898,340.302643 303.714417,339.783630 
z"/>
<path fill="#000000" opacity="1.000000" stroke="none" 
	d="
M39.077568,399.913544 
	C39.053017,396.916870 39.028469,393.920166 39.483761,390.463440 
	C60.934761,389.959106 81.905922,389.914825 102.877083,389.870514 
	C106.916428,392.577942 108.086906,395.773834 103.781937,399.900574 
	C81.693481,399.992584 60.385525,399.953064 39.077568,399.913544 
z"/>
<path fill="#5D6595" opacity="1.000000" stroke="none" 
	d="
M39.043617,400.204834 
	C60.385525,399.953064 81.693481,399.992584 103.463928,400.075928 
	C102.672737,400.416382 101.419746,400.968079 100.165268,400.971497 
	C80.390114,401.025391 60.614758,401.013367 40.839493,400.986816 
	C40.229336,400.985992 39.619602,400.666840 39.043617,400.204834 
z"/>
<path fill="#C8CBDB" opacity="1.000000" stroke="none" 
	d="
M102.596527,389.564453 
	C81.905922,389.914825 60.934761,389.959106 39.498817,390.013428 
	C40.005264,389.644775 40.975613,388.938385 41.947861,388.935760 
	C61.587536,388.882690 81.227425,388.907990 100.867256,388.935944 
	C101.350311,388.936615 101.833069,389.146210 102.596527,389.564453 
z"/>
</svg>