<?xml version="1.0" encoding="utf-8"?>
<!-- Generator: Adobe Illustrator 16.0.0, SVG Export Plug-In . SVG Version: 6.00 Build 0)  -->
<!DOCTYPE svg PUBLIC "-//W3C//DTD SVG 1.1//EN" "http://www.w3.org/Graphics/SVG/1.1/DTD/svg11.dtd">
<svg version="1.1" id="Layer_1" xmlns="http://www.w3.org/2000/svg" xmlns:xlink="http://www.w3.org/1999/xlink" x="0px" y="0px"
	 width="172.833px" height="219px" viewBox="2.5 196 172.833 219" enable-background="new 2.5 196 172.833 219"
	 xml:space="preserve">
<path fill="#275D38" d="M117.328,223.514l-1.788-0.715c-4.39-1.669-9.054-2.5-13.75-2.448c-4.333-0.036-8.639,0.671-12.732,2.09
	c-4.104-1.417-8.419-2.124-12.76-2.09c-4.696-0.052-9.36,0.778-13.75,2.448l-1.788,0.715v3.96h-4.51v30.69h65.505v-30.69h-4.427
	V223.514z M86.197,251.014c-6.515-1.576-13.312-1.576-19.827,0v-23.595c6.484-1.816,13.343-1.816,19.827,0V251.014z
	 M111.663,251.014c-6.515-1.576-13.313-1.576-19.828,0v-23.595c6.484-1.816,13.343-1.816,19.828,0V251.014z"/>
<path fill="#275D38" d="M166.25,214.411l-2.337-1.127c-21.478-10.478-45.292-15.373-74.883-15.373
	c-29.59,0-53.405,4.895-74.965,15.373l-2.337,1.127L4,218.179v88.742c0,14.74,3.163,52.058,32.34,77.303
	c13.863,12.007,29.748,21.458,46.915,27.913c0,0,5.363,1.952,5.775,1.952c0.413,0,5.72-1.952,5.72-1.952
	c17.114-6.46,32.944-15.912,46.75-27.913c29.37-25.245,32.533-62.563,32.533-77.303v-88.715L166.25,214.411z M65.243,382.959
	l-3.245,3.245c-2.75-1.705-5.5-3.603-8.25-5.692l8.525-8.525l3.025,3.025L65.243,382.959z M65.243,360.959l-5.033,5.032
	l-6.985,6.902l-6.985-6.984l-5.033-5.033v-7.92l3.025-3.024l8.993,8.992l8.992-8.992l3.025,3.024V360.959z M65.243,338.959
	l-12.018,11.88l-12.018-12.018v-7.92l3.025-3.025l8.993,8.993l8.992-8.993l3.025,3.025V338.959z M100.993,383.097l-5.033,5.032
	l-6.985,6.984l-7.013-6.984l-5.032-5.032v-8.085l3.052-3.025l8.993,8.992l8.965-8.992l3.053,3.025V383.097z M100.993,361.097
	l-5.033,5.032l-6.985,6.984l-7.013-6.984l-5.032-5.032v-8.141l3.052-3.024l8.993,8.992l8.965-8.992l3.053,3.024V361.097z
	 M100.993,339.097l-12.018,12.017L76.93,339.097v-8.195l3.052-3.025l8.993,8.993l8.965-8.993l3.053,3.025V339.097z M112.735,383.233
	v-8.222l3.025-3.025l8.525,8.525c-2.75,2.09-5.5,3.987-8.25,5.692L112.735,383.233z M136.77,361.233l-5.033,5.033l-6.985,6.984
	l-6.985-6.984l-5.033-5.033v-8.277l3.025-3.024l8.993,8.992l8.993-8.992l3.025,3.024V361.233z M136.77,339.233l-12.018,12.018
	l-12.018-12.018v-8.332l3.025-3.025l8.993,8.993l8.993-8.993l3.025,3.025V339.233z M159.43,320.341
	c-4.071-0.619-7.978-2.04-11.495-4.18c-5.914-3.375-13.171-3.375-19.085,0c-9.397,5.261-20.853,5.261-30.25,0
	c-5.907-3.365-13.151-3.365-19.058,0c-9.397,5.261-20.853,5.261-30.25,0c-5.914-3.375-13.171-3.375-19.085,0
	c-3.567,1.993-7.492,3.264-11.55,3.74c-0.515-3.803-0.818-7.631-0.908-11.468c2.363-0.374,4.643-1.155,6.737-2.31
	c9.391-5.288,20.86-5.288,30.25,0c5.914,3.375,13.171,3.375,19.085,0c9.388-5.298,20.863-5.298,30.25,0
	c5.914,3.375,13.171,3.375,19.085,0c9.39-5.288,20.859-5.288,30.25,0c2.095,1.154,4.375,1.936,6.737,2.31
	c-0.006,3.841-0.227,7.679-0.66,11.495L159.43,320.341z M160.255,297.434l-21.478-22l-20.24,20.405l-29.563-30.25l-29.535,29.92
	l-20.212-20.405L17.75,296.911v-70.125l2.337-1.155c19.663-9.542,41.663-13.97,68.942-13.97c27.28,0,49.335,4.428,68.97,13.97
	l2.337,1.155L160.255,297.434z"/>
</svg>
